<?xml version="1.0" encoding="utf-8"?>
<!-- Generator: Adobe Illustrator 16.0.3, SVG Export Plug-In . SVG Version: 6.00 Build 0)  -->
<!DOCTYPE svg PUBLIC "-//W3C//DTD SVG 1.1//EN" "http://www.w3.org/Graphics/SVG/1.1/DTD/svg11.dtd">
<svg version="1.1" id="Layer_1" xmlns="http://www.w3.org/2000/svg" xmlns:xlink="http://www.w3.org/1999/xlink" x="0px" y="0px"
	 width="595.281px" height="595.28px" viewBox="0 123.305 595.281 595.28" enable-background="new 0 123.305 595.281 595.28"
	 xml:space="preserve">
<circle fill="#84DBFF" cx="297.64" cy="420.946" r="297.64"/>
<path fill="#FFFFFF" d="M458.882,593.436H136.399c-13.125,0-23.437-10.781-23.437-23.437V271.89
	c0-13.124,10.781-23.436,23.437-23.436h322.483c13.123,0,23.436,10.78,23.436,23.436v297.641
	C482.318,582.655,472.005,593.436,458.882,593.436z"/>
<path fill="#FF7058" d="M482.318,320.17V271.89c0-13.124-10.313-23.436-23.436-23.436H136.399
	c-13.125,0-23.437,10.312-23.437,23.436v48.279H482.318z"/>
<g>
	<rect x="214.676" y="366.104" fill="#E6E9EE" width="37.029" height="37.029"/>
	<rect x="278.891" y="366.104" fill="#E6E9EE" width="37.03" height="37.029"/>
	<rect x="343.576" y="366.104" fill="#E6E9EE" width="37.029" height="37.029"/>
	<rect x="407.791" y="366.104" fill="#E6E9EE" width="37.029" height="37.029"/>
	<rect x="150.46" y="427.508" fill="#E6E9EE" width="37.029" height="37.029"/>
</g>
<rect x="214.676" y="427.508" fill="#4CDBC4" width="37.029" height="37.029"/>
<g>
	<rect x="278.891" y="427.508" fill="#E6E9EE" width="37.03" height="37.029"/>
	<rect x="343.576" y="427.508" fill="#E6E9EE" width="37.029" height="37.029"/>
	<rect x="407.791" y="427.508" fill="#E6E9EE" width="37.029" height="37.029"/>
	<rect x="150.46" y="488.91" fill="#E6E9EE" width="37.029" height="37.029"/>
	<rect x="214.676" y="488.91" fill="#E6E9EE" width="37.029" height="37.029"/>
	<rect x="278.891" y="488.91" fill="#E6E9EE" width="37.03" height="37.029"/>
	<rect x="343.576" y="488.91" fill="#E6E9EE" width="37.029" height="37.029"/>
</g>
<g>
	<circle fill="#84DBFF" cx="402.634" cy="284.078" r="16.874"/>
	<circle fill="#84DBFF" cx="192.646" cy="284.078" r="16.874"/>
</g>
</svg>
