<?xml version="1.0" encoding="utf-8"?>
<!-- Generator: Adobe Illustrator 16.0.3, SVG Export Plug-In . SVG Version: 6.00 Build 0)  -->
<!DOCTYPE svg PUBLIC "-//W3C//DTD SVG 1.1//EN" "http://www.w3.org/Graphics/SVG/1.1/DTD/svg11.dtd">
<svg version="1.1" id="Layer_1" xmlns="http://www.w3.org/2000/svg" xmlns:xlink="http://www.w3.org/1999/xlink" x="0px" y="0px"
	 width="595.281px" height="595.28px" viewBox="0 123.305 595.281 595.28" enable-background="new 0 123.305 595.281 595.28"
	 xml:space="preserve">
<circle fill="#84DBFF" cx="297.64" cy="420.946" r="297.64"/>
<path fill="#FFD05B" d="M360.449,356.73c0,3.28-0.469,5.155-0.469,5.155c-0.938,0.938-2.813,3.75-2.813,3.75
	c-4.219,3.281-1.875,5.625-1.875,5.625v2.344c-0.938,0.938-0.469,3.28-0.469,3.28c1.875,4.219,3.75,0.469,3.75,0.469
	c2.344,2.813,3.75-0.938,3.75-0.938c2.813,1.406,3.281-1.405,3.281-1.405s4.688,0.469,3.75-10.313c-0.469-2.344,0-5.625,0-8.437
	h-8.906V356.73L360.449,356.73z"/>
<g>
	<path fill="#F9B54C" d="M364.667,367.51c0-0.469-0.469-1.875-0.469-1.875c0.469,2.344-1.875,3.75-1.875,3.75
		c0.469,0,0.469-1.406,0.469-1.406c-0.469,1.875-3.75,3.281-3.75,3.281c-0.469-1.406-1.406-1.875-1.406-1.875
		c0.938,0.938,0.938,1.875,0.938,1.875c-0.469,0-0.938,0.469-0.938,0.469c0.938-0.469,1.406,0,1.406,0
		c-1.406,0.469-0.938,1.875-0.938,1.875c0-1.406,0.938-1.406,0.938-1.406c-0.938,0.469-0.469,1.406-0.469,1.406
		c0-1.406,1.406-1.406,1.406-1.406c-0.469-0.938,0-0.938,0-0.938c1.406-1.875,1.875,0,1.875,0.938h0.469
		c-0.938-1.875,0-2.344,0-2.344c1.406-0.938,1.406,0.469,1.406,0.469c0,2.813,1.875,4.219,1.875,4.219h0.469
		c-1.406-0.469-1.875-2.344-1.875-2.344c-0.938-2.813,0.469-3.281,0.469-3.281c2.344,0,1.875,1.875,1.875,1.875
		c0.938,0.469,2.344,0,2.344,0c-0.469,0-0.938-0.469-0.938-0.469c-0.938-0.938,0.469-2.344,0.469-2.344
		c-0.938,1.406-3.75,1.406-3.75,1.406C363.261,369.385,364.667,367.979,364.667,367.51l0.469,0.469c0-0.469,0.938-2.344,0.938-2.344
		C365.605,366.104,365.136,367.042,364.667,367.51z"/>
	<path fill="#F9B54C" d="M355.292,371.729c0,0,0.469,0.469,1.406,2.344c0,0,0,0.469,0.469,0.938c0,0.469,0.938,0.938,1.406,0.469
		c0.938-0.469,1.875-0.469,2.813-0.469c0,0,0.938,0,1.406,0s0.938-0.469,0.469-0.938c0-0.938-0.938-1.406-2.344-1.875
		c0,0-1.406-0.469-1.875,0c0,0,2.344-0.938,3.75,0.469c0,0,1.406,1.406,0.469,1.875c0,0-3.75,0-3.75,0.469
		c0,0-1.406,0.938-2.344-0.469c0,0-0.469-1.406-1.875-1.406c0,0,0.469-0.469,0.938-0.469
		C356.23,373.604,355.761,372.667,355.292,371.729z"/>
	<path fill="#F9B54C" d="M358.574,375.479c0,0.469-0.469,2.812-0.469,2.812c0.469-0.469,0.469-0.469,0.469-0.469l0.469,0.469
		C358.574,376.885,359.042,375.479,358.574,375.479L358.574,375.479z"/>
</g>
<path fill="#FFD05B" d="M361.855,376.885L361.855,376.885C362.324,376.885,362.324,376.885,361.855,376.885c0-0.937,0-1.874,0-1.874
	h-0.469C361.386,375.948,361.855,376.885,361.855,376.885z"/>
<rect x="359.042" y="351.105" fill="#FFFFFF" width="11.719" height="7.968"/>
<g>
	<path fill="#324A5E" d="M394.666,493.597c0,0,7.031,6.094,1.875,13.593c0,0-3.75,4.688-3.75,7.5c0,0,0.469,7.969-7.967,6.094
		c0,0-8.438-6.094-14.063-0.938c0,0-4.219-0.469-2.344-6.094c0,0,4.688-6.094,7.5-11.249c0,0,1.875-1.406,0.938-5.156
		L394.666,493.597z"/>
	<path fill="#324A5E" d="M416.228,493.597c0,0-7.031,6.094-1.875,13.593c0,0,3.75,4.688,3.75,7.5c0,0-0.469,7.969,7.967,6.094
		c0,0,8.438-6.094,14.063-0.938c0,0,4.219-0.469,2.344-6.094c0,0-4.688-6.094-7.5-11.249c0,0-1.875-1.406-0.938-5.156
		L416.228,493.597z"/>
</g>
<path fill="#2B3B4E" d="M435.914,401.259c0,0-5.156,77.809-0.469,94.683c0,0-9.375,16.405-25.311,0c0,0-0.469-127.493-4.688-133.118
	c-4.219,5.625-4.688,133.118-4.688,133.118c-16.404,16.405-25.311,0-25.311,0c4.688-16.874-0.469-94.683-0.469-94.683
	c-5.625-33.748-2.344-62.809,0.469-78.746h59.527C438.257,338.45,441.539,367.51,435.914,401.259z"/>
<polygon fill="#E6E9EE" points="388.572,235.33 404.509,297.202 420.447,235.33 "/>
<g>
	<path fill="#F1543F" d="M405.447,235.33L405.447,235.33L405.447,235.33L405.447,235.33z"/>
	<path fill="#F1543F" d="M410.603,238.142l-1.406,3.75h-7.5l-1.406-3.75l0,0c2.813-2.344,5.156-2.813,5.156-2.813
		S407.791,235.799,410.603,238.142z"/>
</g>
<path fill="#FF7058" d="M412.947,262.516c-2.813,13.124-6.094,26.717-7.5,33.279c-1.406-6.563-4.688-19.687-7.031-33.279
	l3.75-21.093h7.5L412.947,262.516z"/>
<path id="SVGCleanerId_0" fill="#324A5E" d="M372.636,355.793h-2.344c-0.938-12.656,1.406-26.249,1.406-26.249
	c0.469-1.875,0.469-3.281,0.938-5.156C372.636,338.919,372.636,355.793,372.636,355.793z"/>
<path fill="#324A5E" d="M406.384,300.014l-8.906-23.905l-7.5-44.06l-28.123,10.312c0,0-8.438,21.093-5.625,113.432h14.063
	c0,1.875,0.469,3.28,0.469,5.155c0,0,19.686,14.063,27.186,0.938C397.947,362.354,408.259,330.95,406.384,300.014z M372.167,324.387
	c0-8.437-0.469-15.937-1.406-18.749c0,0-0.469-8.437,1.406-14.999C373.574,301.889,374.042,314.076,372.167,324.387z"/>
<g>
	<path id="SVGCleanerId_0_1_" fill="#324A5E" d="M372.636,355.793h-2.344c-0.938-12.656,1.406-26.249,1.406-26.249
		c0.469-1.875,0.469-3.281,0.938-5.156C372.636,338.919,372.636,355.793,372.636,355.793z"/>
</g>
<path fill="#FFD05B" d="M450.914,356.73c0,3.28,0.469,5.155,0.469,5.155c0.938,0.938,2.813,3.75,2.813,3.75
	c4.219,3.281,1.875,5.625,1.875,5.625v2.344c0.938,0.938,0.469,3.28,0.469,3.28c-1.875,4.219-3.75,0.469-3.75,0.469
	c-2.344,2.813-3.75-0.938-3.75-0.938c-2.813,1.406-3.281-1.405-3.281-1.405s-4.688,0.469-3.75-10.313c0.469-2.344,0-5.625,0-8.437
	h8.906V356.73L450.914,356.73z"/>
<rect x="440.601" y="351.105" fill="#FFFFFF" width="11.719" height="7.968"/>
<g>
	<path fill="#324A5E" d="M397.009,504.379c0,0,1.875,7.03-0.938,9.374c0,0-2.813,0.938-2.344,4.688c0,0,0,4.688-6.092,4.219
		c0,0-15.938,1.875-18.281-1.875c0,0-1.875-1.875-0.469-5.156l18.281-7.031L397.009,504.379z"/>
	<path fill="#324A5E" d="M413.884,504.379c0,0-1.875,7.03,0.938,9.374c0,0,2.813,0.938,2.344,4.688c0,0,0,4.688,6.094,4.219
		c0,0,15.936,1.875,18.279-1.875c0,0,1.875-1.875,0.469-5.156l-18.279-7.031L413.884,504.379z"/>
</g>
<polygon fill="#CED5E0" points="418.103,226.425 392.791,226.425 389.041,235.33 419.978,235.33 "/>
<path fill="#2B3B4E" d="M392.791,226.425l-13.592,14.53l5.156,2.344l-4.219,4.219c0,0,12.654,39.372,26.248,52.966
	C406.384,300.014,391.853,239.08,392.791,226.425z"/>
<path fill="#324A5E" d="M449.039,242.361l-28.123-10.312l-7.5,44.06l-8.906,23.905c-1.875,30.467,8.438,62.34,8.438,62.34
	c7.5,13.125,27.186-0.938,27.186-0.938c0.469-1.875,0.469-3.281,0.469-5.155h14.063
	C457.476,263.454,449.039,242.361,449.039,242.361z M438.726,290.639c1.875,6.563,1.406,14.999,1.406,14.999
	c-0.938,2.813-1.406,10.781-1.406,19.218C436.851,314.076,437.32,302.358,438.726,290.639z"/>
<path id="SVGCleanerId_1" fill="#324A5E" d="M440.601,355.793h-2.344c0,0,0-16.874,0.469-30.937
	c0.469,1.406,0.469,3.281,0.938,4.688C439.195,329.544,441.539,343.605,440.601,355.793z"/>
<g>
	<path fill="#2B3B4E" d="M418.103,226.425l13.592,14.53l-5.156,2.344l3.75,3.75c0,0-12.654,39.372-26.248,52.966
		C404.509,300.014,419.041,239.08,418.103,226.425z"/>
	<circle fill="#2B3B4E" cx="409.197" cy="302.826" r="2.812"/>
</g>
<polygon fill="#FFFFFF" points="422.791,279.859 427.476,271.89 434.976,277.515 "/>
<rect x="420.941" y="277.495" transform="matrix(0.9789 -0.2042 0.2042 0.9789 -48.0089 93.4668)" fill="#2B3B4E" width="15.935" height="3.75"/>
<g>
	<path fill="#F9B54C" d="M446.695,367.51c0-0.469,0.469-1.875,0.469-1.875c-0.469,2.344,1.875,3.75,1.875,3.75
		c-0.469,0-0.469-1.406-0.469-1.406c0.469,1.875,3.75,3.281,3.75,3.281c0.469-1.406,1.406-1.875,1.406-1.875
		c-1.406,0.469-1.406,1.406-1.406,1.406c0.469,0,0.938,0.469,0.938,0.469c-0.938-0.469-1.406,0-1.406,0
		c1.406,0.469,0.938,1.875,0.938,1.875c0-1.406-0.938-1.406-0.938-1.406c0.938,0.469,0.469,1.406,0.469,1.406
		c0-1.406-1.406-1.406-1.406-1.406c0.469-0.938,0-0.938,0-0.938c-1.406-1.875-1.875,0-1.875,0.938h-0.469
		c0.938-1.875,0-2.344,0-2.344c-0.938,0-0.938,1.875-0.938,1.875c0,2.813-1.875,4.219-1.875,4.219h-0.469
		c1.406-0.469,1.875-2.344,1.875-2.344c0.938-2.813-0.469-3.281-0.469-3.281c-2.344,0-1.875,1.875-1.875,1.875
		c-0.938,0.469-2.344,0-2.344,0c0.469,0,0.938-0.469,0.938-0.469c0.938-0.938-0.469-2.344-0.469-2.344
		c0.469,0.469,3.281,0.469,3.281,0.469C447.632,369.385,446.695,367.979,446.695,367.51l-0.469,0.469
		c0-0.469-0.938-2.344-0.938-2.344C445.757,366.104,446.226,367.042,446.695,367.51z"/>
	<path fill="#F9B54C" d="M456.07,371.729c0,0-0.469,0.469-1.406,2.344c0,0,0,0.469-0.469,0.938c0,0.469-0.938,0.938-1.406,0.469
		c-0.938-0.469-1.875-0.469-2.813-0.469c0,0-0.938,0-1.406,0s-0.938-0.469-0.469-0.938c0-0.938,0.938-1.406,2.344-1.875
		c0,0,1.406-0.469,1.875,0c0,0-2.344-0.938-3.75,0.469c0,0-1.406,1.406-0.469,1.875c0,0,3.75,0,3.75,0.469
		c0,0,1.406,0.938,2.344-0.469c0,0,0.469-1.406,1.875-1.406c0,0-0.469-0.469-0.938-0.469
		C455.132,373.604,455.132,372.667,456.07,371.729z"/>
</g>
<path fill="#FFD05B" d="M449.507,376.885C449.039,376.885,449.039,376.885,449.507,376.885
	C449.039,376.885,449.039,376.885,449.507,376.885c0-0.937,0-1.874,0-1.874h0.469C449.976,375.948,449.507,376.885,449.507,376.885z
	"/>
<g>
	<path id="SVGCleanerId_1_1_" fill="#324A5E" d="M440.601,355.793h-2.344c0,0,0-16.874,0.469-30.937
		c0.469,1.406,0.469,3.281,0.938,4.688C439.195,329.544,441.539,343.605,440.601,355.793z"/>
</g>
<path fill="#F9B54C" d="M416.228,223.143c0,3.281-1.406,9.374-10.313,12.187h-0.469c-9.844-3.28-10.781-10.312-10.313-12.655
	c2.813,3.281,6.563,5.625,10.781,5.625C409.666,228.3,412.947,225.956,416.228,223.143z"/>
<g>
	<path fill="#FFFFFF" d="M415.759,221.268c0,0,1.875,10.313-10.313,14.062c0,0,7.031,1.406,10.313,10.313
		C415.759,245.642,424.197,232.05,415.759,221.268z"/>
	<path fill="#FFFFFF" d="M395.134,221.268c-7.967,10.781,0.469,24.374,0.469,24.374c3.281-8.438,10.313-10.313,10.313-10.313
		C392.791,231.581,395.134,221.268,395.134,221.268z"/>
</g>
<path fill="#FFD05B" d="M420.447,212.363c-1.406,4.218-1.875,7.03-2.344,7.499l0,0c-3.281,4.688-7.969,7.969-12.656,7.969
	s-8.906-2.813-12.188-7.031c-6.561-8.437-1.875-24.842-1.875-24.842c3.75,4.218,15,4.218,15,4.218
	c-4.688-0.938-5.625-4.218-6.094-4.687c0.938,2.343,12.188,3.749,12.188,3.749C424.664,201.113,420.447,212.363,420.447,212.363z"/>
<path fill="#324A5E" d="M398.884,179.083c0,0,15.938-6.093,23.906,7.969c8.436,15.468-2.344,31.873-4.219,33.279
	c0,0,0.469-2.813,2.344-7.499c0,0,3.748-11.25-7.969-13.125c0,0-11.25-1.406-12.188-3.749c0,0,0.938,4.218,6.094,4.687
	c0,0-11.719-0.469-15-4.219c0,0-5.154,16.406,2.344,25.312c0,0-12.186-9.843-10.779-25.312
	C382.949,195.958,382.011,174.865,398.884,179.083z"/>
<g>
	<polygon fill="#2B3B4E" points="271.392,477.661 225.925,406.884 225.925,430.789 255.924,477.661 	"/>
	<polygon fill="#2B3B4E" points="195.927,477.661 225.925,430.789 225.925,406.884 180.928,477.661 	"/>
</g>
<rect x="219.363" y="380.635" fill="#324A5E" width="13.124" height="113.432"/>
<path fill="#FFFFFF" d="M329.044,391.885h-205.77c-6.093,0-10.78-4.688-10.78-10.781V232.05c0-6.094,4.687-10.781,10.78-10.781
	h205.77c6.094,0,10.781,4.688,10.781,10.781v149.054C339.826,387.197,335.138,391.885,329.044,391.885z"/>
<g>
	<rect x="181.396" y="306.107" fill="#FF7058" width="16.405" height="56.247"/>
	<rect x="217.02" y="267.673" fill="#FF7058" width="16.405" height="94.213"/>
	<rect x="252.643" y="324.387" fill="#FF7058" width="16.405" height="37.967"/>
	<rect x="288.266" y="285.953" fill="#FF7058" width="16.406" height="75.933"/>
	<rect x="145.773" y="285.953" fill="#FF7058" width="16.405" height="75.933"/>
</g>
<path fill="#324A5E" d="M231.725,597.243c-1.91-2.496-4.551-4.633-7.206-6.15l-15.468-7.5c-0.469-1.875-2.813-4.687-2.813-4.687
	c0.938-1.406,2.813-4.688,3.281-5.625c0.938-0.469,2.344-1.406,2.812-2.344c0.469-1.406,0.469-2.344,0.469-3.75
	c3.281-7.03,5.156-18.28-3.75-26.717c-6.562-6.563-14.062-6.563-14.062-6.563c1.406,0.938,0,2.344,0,2.344
	c-2.343-3.281-7.031-0.938-7.031-0.938c3.281,0.938,3.75,2.344,3.75,2.344c-9.843-3.281-14.531,5.625-14.531,5.625l4.219-0.938
	c-7.968,7.499-6.562,17.343-4.219,23.904c-0.469,0.938-0.938,2.813,0,4.219s1.875,2.344,3.281,2.813
	c0.938,1.875,1.875,3.75,2.813,5.625c0,0-2.344,2.812-2.813,4.687l-15.468,7.5c-3.025,1.513-5.429,3.642-7.234,6.128
	c-8.133,0.363-14.796,7.223-14.796,15.434h103.12C246.081,604.592,239.657,597.83,231.725,597.243z"/>
<path fill="#324A5E" d="M129.629,597.355c-1.916-2.544-4.598-4.723-7.292-6.263l-15.468-7.5c-0.469-1.875-2.813-4.687-2.813-4.687
	c0.938-1.406,2.813-4.688,3.281-5.625c0.938-0.469,2.344-1.406,2.813-2.344c0.469-1.406,0.469-2.344,0.469-3.75
	c3.281-7.03,5.156-18.28-3.75-26.717c-6.562-6.563-14.062-6.563-14.062-6.563c1.406,0.938,0,2.344,0,2.344
	c-2.344-3.281-7.031-0.938-7.031-0.938c3.281,0.938,3.75,2.344,3.75,2.344c-9.843-3.281-14.53,5.625-14.53,5.625l4.218-0.938
	c-7.968,7.499-6.562,17.343-4.218,23.904c-0.469,0.938-0.938,2.813,0,4.219s1.875,2.344,3.281,2.813
	c0.938,1.875,1.875,3.75,2.813,5.625c0,0-2.344,2.812-2.813,4.687l-15.468,7.5c-2.344,0.938-4.218,2.813-5.625,4.219
	c0.487,0.729,0.974,1.331,1.46,1.874h-0.523c3.878,5.294,7.933,10.45,12.147,15.469h72.691
	C142.961,604.942,137.082,598.423,129.629,597.355z"/>
<path fill="#324A5E" d="M334.376,597.243c-1.91-2.496-4.552-4.633-7.207-6.15l-15.467-7.5c-0.469-1.875-2.813-4.687-2.813-4.687
	c0.938-1.406,2.813-4.688,3.281-5.625c0.938-0.469,2.344-1.406,2.813-2.344c0.467-1.406,0.467-2.344,0.467-3.75
	c3.281-7.03,5.156-18.28-3.748-26.717c-6.563-6.563-14.063-6.563-14.063-6.563c1.406,0.938,0,2.344,0,2.344
	c-2.344-3.281-7.031-0.938-7.031-0.938c3.281,0.938,3.75,2.344,3.75,2.344c-9.843-3.281-14.53,5.625-14.53,5.625l4.218-0.938
	c-7.968,7.499-6.562,17.343-4.218,23.904c-0.469,0.938-0.938,2.813,0,4.219s1.875,2.344,3.281,2.813
	c0.938,1.875,1.875,3.75,2.813,5.625c0,0-2.344,2.812-2.813,4.687l-15.468,7.5c-3.035,1.518-5.445,3.656-7.251,6.152
	c-7.911,0.609-14.31,7.362-14.31,15.409h102.651C348.732,604.592,342.308,597.83,334.376,597.243z"/>
<path fill="#324A5E" d="M538.564,596.249c-1.875-2.344-4.219-3.75-6.561-5.156l-15.469-7.5c-0.469-1.875-2.813-4.687-2.813-4.687
	c0.938-1.406,2.813-4.688,3.281-5.625c0.938-0.469,2.344-1.406,2.813-2.344c0.469-1.406,0.469-2.344,0.469-3.75
	c3.281-7.03,5.156-18.28-3.75-26.717c-6.563-6.563-14.063-6.563-14.063-6.563c1.406,0.938,0,2.344,0,2.344
	c-2.344-3.281-7.029-0.938-7.029-0.938c3.279,0.938,3.748,2.344,3.748,2.344c-9.842-3.281-14.529,5.625-14.529,5.625l4.219-0.938
	c-7.969,7.499-6.563,17.343-4.219,23.904c-0.469,0.938-0.938,2.813,0,4.219s1.875,2.344,3.281,2.813
	c0.938,1.875,1.875,3.75,2.813,5.625c0,0-2.344,2.812-2.813,4.687l-15.469,7.5c-3.083,1.541-5.521,3.723-7.337,6.271
	c-7.43,1.086-13.286,7.595-13.286,15.291h73.159c3.713-4.422,7.295-8.958,10.749-13.594h0.461
	C536.689,598.123,537.626,597.185,538.564,596.249z"/>
<path fill="#324A5E" d="M436.519,597.192c-1.907-2.474-4.531-4.593-7.168-6.1l-15.467-7.5c-0.469-1.875-2.813-4.687-2.813-4.687
	c0.938-1.406,2.813-4.688,3.281-5.625c0.938-0.469,2.344-1.406,2.813-2.344c0.469-1.406,0.469-2.344,0.469-3.75
	c3.281-7.03,5.156-18.28-3.75-26.717c-6.563-6.563-14.063-6.563-14.063-6.563c1.406,0.938,0,2.344,0,2.344
	c-2.344-3.281-7.031-0.938-7.031-0.938c3.281,0.938,3.75,2.344,3.75,2.344c-9.842-3.281-14.529,5.625-14.529,5.625l4.219-0.938
	c-7.969,7.499-6.563,17.343-4.219,23.904c-0.469,0.938-0.938,2.813,0,4.219s1.875,2.344,3.281,2.813
	c0.938,1.875,1.875,3.75,2.811,5.625c0,0-2.342,2.812-2.811,4.687l-15.469,7.5c-3.049,1.524-5.468,3.676-7.277,6.188
	c-7.683,0.846-13.814,7.494-13.814,15.374h103.119C451.851,604.262,444.895,597.268,436.519,597.192z"/>
</svg>
