<?xml version="1.0" encoding="utf-8"?>
<!-- Generator: Adobe Illustrator 16.0.3, SVG Export Plug-In . SVG Version: 6.00 Build 0)  -->
<!DOCTYPE svg PUBLIC "-//W3C//DTD SVG 1.1//EN" "http://www.w3.org/Graphics/SVG/1.1/DTD/svg11.dtd">
<svg version="1.1" id="Layer_1" xmlns="http://www.w3.org/2000/svg" xmlns:xlink="http://www.w3.org/1999/xlink" x="0px" y="0px"
	 width="595.281px" height="595.28px" viewBox="0 123.305 595.281 595.28" enable-background="new 0 123.305 595.281 595.28"
	 xml:space="preserve">
<circle fill="#84DBFF" cx="297.64" cy="420.946" r="297.64"/>
<g>
	<polygon fill="#F9B54C" points="485.599,500.629 455.601,554.063 455.601,497.816 	"/>
	<path fill="#F9B54C" d="M337.013,345.011c0,26.249-17.344,34.686-39.373,34.686c-22.03,0-39.373-8.437-39.373-34.686
		c0-26.248,17.343-60.934,39.373-60.934C319.669,284.078,337.013,318.763,337.013,345.011z"/>
</g>
<path fill="#E6E9EE" d="M338.419,338.919l-1.875,108.275l-12.188,35.623l-22.029,62.34c-0.938,0-2.344,0-3.281,0
	c-0.469,0-0.938,0-1.406,0c-0.469,0-0.938,0-1.406,0c-0.938,0-2.344,0-3.281,0l-22.03-60.934l-18.28-51.091v-82.965l6.093-14.999
	l0.469,0.469l2.344,2.344l24.374,24.842l4.219,4.219l7.5-4.219l0.468-0.469l6.563-3.75l0,0l29.529-16.874l2.813-1.406l0,0
	L338.419,338.919z"/>
<polygon fill="#F1543F" points="284.516,362.354 276.079,373.135 286.391,386.26 308.89,386.26 319.201,373.135 310.765,362.354 "/>
<path fill="#FF7058" d="M329.513,516.096l-10.781,12.655l0,0l-14.529,16.405c-0.469,0-1.406,0-1.875,0c-0.938,0-2.344,0-3.281,0
	c-0.469,0-0.938,0-1.406,0c-0.469,0-0.938,0-1.406,0c-0.938,0-2.344,0-3.281,0c-0.469,0-0.938,0-1.875,0l-14.531-16.405l0,0
	l-10.78-12.655l1.406-8.906l3.75-23.436l5.156-33.748l0,0l10.312-63.747h22.5l10.311,63.747l0,0l0,0l5.156,32.342l3.75,24.374
	L329.513,516.096z"/>
<path fill="#324A5E" d="M217.02,471.098c-2.813,1.875-5.625,23.437-8.437,52.029c-0.469,0-0.469,0-0.938-0.469
	c-16.405-8.438-31.405-19.687-44.529-32.343c4.687-63.746,9.375-117.649,9.375-117.649l0,0l0,0L217.02,471.098z"/>
<path fill="#2B3B4E" d="M296.234,545.157c-0.938,0-2.344,0-3.281,0c-0.469,0-0.938,0-1.875,0c-1.875,0-4.219,0-6.094-0.469
	c-27.186-1.874-52.966-9.374-76.402-21.092c-0.469,0-0.469,0-0.938-0.469c-11.718-76.871-33.748-144.837-35.154-149.523l0,0l0,0
	c57.653-12.188,86.714-48.279,89.995-52.497l0,0c0,0,0-0.469,0.469-0.469c0,0.469,0,0.469,0,0.938
	c-0.938,4.218-1.406,9.374-1.406,16.405c0,6.562,0.469,14.062,0.938,22.029l0,0c0,1.406,0.469,3.281,0.469,4.688l0,0
	c2.344,25.312,7.968,56.716,13.124,85.777l0,0c9.375,49.685,19.687,94.213,19.687,94.213
	C296.234,544.688,296.234,544.688,296.234,545.157z"/>
<path fill="#ACB3BA" d="M296.234,545.157c-0.938,0-2.344,0-3.281,0c-0.469,0-0.938,0-1.875,0c-1.875,0-4.219,0-6.094-0.469
	c-2.812-5.155-5.625-10.312-8.437-15.937l0,0c-3.281-7.03-6.562-14.062-9.375-21.093c-24.374-57.184-40.31-123.274-40.31-123.274
	c4.687,0.469,18.28-5.625,18.28-5.625l-18.28-21.092c19.218-4.688,32.811-30.468,35.623-36.092c0.469-0.469,0.469-0.938,0.469-0.938
	c0,0.469,0,0.469,0,0.938c-0.938,4.218-1.406,9.374-1.406,16.405c0,6.562,0.469,14.062,0.938,22.029l0,0
	c0,1.406,0.469,3.281,0.469,4.688l0,0c2.344,25.312,7.968,56.716,13.124,85.777l0,0c9.375,49.685,19.687,94.213,19.687,94.213
	C296.234,544.688,296.234,544.688,296.234,545.157z"/>
<path fill="#2B3B4E" d="M432.164,490.785c-13.123,12.656-28.123,23.905-44.996,32.343c-0.469,0-0.469,0.469-0.938,0.469
	c-2.813-29.062-5.625-50.154-8.438-52.029l44.529-97.494l0,0l0,0C422.322,374.073,427.007,427.039,432.164,490.785z"/>
<path fill="#324A5E" d="M422.322,373.135L422.322,373.135C422.322,373.135,422.322,373.604,422.322,373.135
	c-1.875,5.155-23.438,73.121-35.154,149.992c-0.469,0-0.469,0.469-0.938,0.469c-22.969,11.718-48.748,19.218-75.934,21.092
	c-1.875,0-4.219,0.469-6.094,0.469c-0.469,0-1.406,0-1.875,0c-0.938,0-2.344,0-3.281,0c0-0.469,0-0.469,0-0.938
	c0,0,10.313-44.06,19.686-94.213l0,0l0,0c5.625-29.53,10.781-60.466,13.125-85.777l0,0c0-1.406,0.469-3.281,0.469-4.688l0,0
	c0.469-6.562,0.938-12.187,0.938-17.812c0.469-8.905,0-15.937-1.406-20.623l0,0c0-0.469,0-0.469,0-0.938l0,0c0,0,0,0,0,0.469l0,0
	C335.138,324.387,364.667,360.948,422.322,373.135z"/>
<path fill="#CED5E0" d="M368.417,383.916c0,0-16.406,66.091-40.311,123.274c-3.281,7.5-6.094,14.531-9.375,21.093l0,0
	c-2.811,5.625-5.623,10.781-8.436,15.937c-1.875,0-4.219,0.469-6.094,0.469c-0.469,0-1.406,0-1.875,0c-0.938,0-2.344,0-3.281,0
	c0-0.469,0-0.469,0-0.938c0,0,10.313-44.06,19.686-94.213l0,0l0,0c5.625-29.53,10.781-60.466,13.125-85.777l0,0
	c0-1.406,0.469-3.281,0.469-4.688l0,0c0.469-6.562,0.938-12.187,0.938-17.812c0.469-8.905,0-15.937-1.406-20.623l0,0
	c0-0.469,0-0.469,0-0.938l0,0c0,0,0,0.469,0.469,0.938l0,0c2.813,5.624,16.406,31.404,35.623,36.561l-17.342,21.561
	C350.607,378.76,363.73,384.853,368.417,383.916z"/>
<g>
	<path fill="#FFFFFF" d="M331.857,320.17c0,0,8.438,19.218-34.217,41.716l19.217,29.062
		C316.857,391.416,347.794,347.355,331.857,320.17z"/>
	<path fill="#FFFFFF" d="M262.955,320.17c0,0-8.437,19.218,34.217,41.716l-19.218,29.062
		C277.954,391.416,247.487,347.355,262.955,320.17z"/>
</g>
<g>
	<path fill="#FFD05B" d="M348.732,256.891c0,37.967-22.969,87.183-51.092,87.183c-28.124,0-51.091-49.216-51.091-87.183
		s22.967-49.685,51.091-49.685C325.763,207.207,348.732,218.925,348.732,256.891z"/>
	<path fill="#FFD05B" d="M359.98,275.172c-3.281,7.031-8.904,11.25-12.654,9.844c-4.219-1.406-4.688-8.438-1.875-15.469
		c3.281-7.03,8.904-11.249,12.654-9.843C362.324,261.579,362.792,268.141,359.98,275.172z"/>
	<path fill="#FFD05B" d="M235.3,275.172c3.281,7.031,8.906,11.25,12.656,9.844c4.218-1.406,4.687-8.438,1.875-15.469
		c-3.281-7.03-8.906-11.249-12.655-9.843C232.956,261.579,232.019,268.141,235.3,275.172z"/>
</g>
<path fill="#324A5E" d="M297.171,220.8c15-8.437,50.154-20.155,49.686,54.841c0,0,33.279-85.776-17.813-87.183
	c0,0-36.091-36.561-82.495,16.874l7.5-3.75c0,0-37.498,22.03-5.625,74.059c0,0-5.625-74.996,36.092-54.372
	C288.266,223.143,293.421,222.675,297.171,220.8z"/>
<path fill="#FFD05B" d="M460.287,498.754l-15.936,180.928c-43.123,24.374-93.275,38.904-146.711,38.904
	c-53.435,0-103.588-14.062-146.711-38.904l-15.937-180.928H460.287z"/>
<g>
	<polygon fill="#F9B54C" points="458.882,517.034 460.287,498.754 134.993,498.754 136.399,517.034 	"/>
	<polygon fill="#F9B54C" points="134.993,497.816 109.682,500.629 139.68,554.063 	"/>
</g>
<path fill="none" stroke="#FFFFFF" stroke-width="1.01" stroke-miterlimit="10" d="M149.992,478.13c0,0-0.938-80.152,51.091-81.09"
	/>
<rect x="109.682" y="466.412" fill="#FFD05B" width="375.449" height="34.217"/>
<ellipse fill="#FF7058" cx="201.552" cy="396.103" rx="12.655" ry="9.375"/>
</svg>
